<svg width="100" height="100" viewBox="0 0 100 100" fill="none" xmlns="http://www.w3.org/2000/svg">
<g clip-path="url(#clip0_324_1846)">
<path fill-rule="evenodd" clip-rule="evenodd" d="M16 16C14.6739 16 13.4021 16.5268 12.4645 17.4645C11.5268 18.4021 11 19.6739 11 21C11 22.3261 11.5268 23.5979 12.4645 24.5355C13.4021 25.4732 14.6739 26 16 26V66C16 68.6522 17.0536 71.1957 18.9289 73.0711C20.8043 74.9464 23.3478 76 26 76H38.93L32.465 82.465C31.9875 82.9262 31.6065 83.478 31.3445 84.088C31.0824 84.698 30.9445 85.3541 30.9387 86.018C30.933 86.6819 31.0595 87.3403 31.3109 87.9548C31.5623 88.5692 31.9336 89.1275 32.403 89.597C32.8725 90.0664 33.4307 90.4377 34.0452 90.6891C34.6597 90.9405 35.3181 91.067 35.982 91.0613C36.6459 91.0555 37.302 90.9175 37.912 90.6555C38.522 90.3935 39.0738 90.0126 39.535 89.535L51 78.07L62.465 89.535C63.408 90.4458 64.671 90.9498 65.982 90.9384C67.293 90.927 68.5471 90.4011 69.4741 89.4741C70.4011 88.5471 70.927 87.293 70.9384 85.982C70.9498 84.671 70.4458 83.408 69.535 82.465L63.07 76H76C78.6522 76 81.1957 74.9464 83.0711 73.0711C84.9464 71.1957 86 68.6522 86 66V26C87.3261 26 88.5979 25.4732 89.5355 24.5355C90.4732 23.5979 91 22.3261 91 21C91 19.6739 90.4732 18.4021 89.5355 17.4645C88.5979 16.5268 87.3261 16 86 16H16ZM74.535 39.535C75.4458 38.592 75.9498 37.329 75.9384 36.018C75.927 34.707 75.4011 33.4529 74.4741 32.5259C73.5471 31.5989 72.293 31.073 70.982 31.0616C69.671 31.0502 68.408 31.5542 67.465 32.465L51 48.93L44.535 42.465C43.5974 41.5276 42.3258 41.0011 41 41.0011C39.6742 41.0011 38.4026 41.5276 37.465 42.465L27.465 52.465C26.9875 52.9262 26.6065 53.478 26.3445 54.088C26.0824 54.698 25.9445 55.3541 25.9387 56.018C25.933 56.6819 26.0595 57.3403 26.3109 57.9548C26.5623 58.5693 26.9336 59.1275 27.403 59.597C27.8725 60.0664 28.4307 60.4377 29.0452 60.6891C29.6597 60.9405 30.3181 61.067 30.982 61.0613C31.6459 61.0555 32.302 60.9176 32.912 60.6555C33.522 60.3935 34.0738 60.0125 34.535 59.535L41 53.07L47.465 59.535C48.4026 60.4724 49.6742 60.9989 51 60.9989C52.3258 60.9989 53.5974 60.4724 54.535 59.535L74.535 39.535V39.535Z" fill="#3F3F46"/>
</g>
<defs>
<clipPath id="clip0_324_1846">
<rect width="100" height="100" fill="white"/>
</clipPath>
</defs>
</svg>
